<svg width="1002" height="233" viewBox="0 0 1002 233" fill="none" xmlns="http://www.w3.org/2000/svg">
<path d="M201.01 57.3081L102.385 0.347634C101.613 -0.115878 100.583 -0.115878 99.8101 0.347634L42.4891 33.463C41.459 34.081 41.459 35.5231 42.4891 36.1411L65.4072 49.3769C66.3857 49.9434 67.5187 49.9434 68.4973 49.3769L99.8101 31.2999C100.583 30.8364 101.613 30.8364 102.385 31.2999L174.23 72.7585C175.002 73.2221 175.517 74.0461 175.517 74.9731V142.079C175.517 143.161 176.084 144.191 177.062 144.757L199.98 157.993C201.01 158.611 202.298 157.839 202.298 156.654V59.5227C202.298 58.5957 201.783 57.7716 201.01 57.3081Z" fill="white"/>
<path d="M99.8611 201.617L28.0167 160.159C27.2442 159.695 26.7292 158.871 26.7292 157.944V91.0439C26.7292 90.0653 27.8107 89.4473 28.6863 89.9108L113.045 138.683C113.715 139.095 114.591 138.58 114.591 137.807V110.46C114.591 109.378 114.024 108.348 113.045 107.782L14.7294 51.0273C13.9569 50.5638 12.9268 50.5638 12.1543 51.0273L1.28753 57.3105C0.515014 57.774 0 58.598 0 59.525V173.395C0 174.322 0.515014 175.146 1.28753 175.609L99.8611 232.518C100.634 232.982 101.664 232.982 102.436 232.518L186.486 184.004C187.516 183.386 187.516 181.944 186.486 181.326L163.723 167.987C162.744 167.42 161.56 167.42 160.633 167.987L102.436 201.617C101.664 202.081 100.634 202.081 99.8611 201.617Z" fill="white"/>
<path d="M1002 57.3387C1002 67.33 994.38 74.4371 985.007 74.4371C975.634 74.4371 967.96 67.2785 967.96 57.3387C967.96 47.3989 975.634 40.2917 985.007 40.2917C994.38 40.2917 1002 47.4504 1002 57.3387ZM999.633 57.3387C999.633 48.6865 993.144 42.5063 985.007 42.5063C976.87 42.5063 970.381 48.6865 970.381 57.3387C970.381 65.9909 976.87 72.2226 985.007 72.2226C993.144 72.2226 999.633 66.0424 999.633 57.3387ZM977.848 66.1454V48.0684H986.14C990.518 48.0684 993.093 50.077 993.093 53.9911C993.093 56.7207 991.548 58.4202 989.642 59.2442L993.711 66.1969H989.127L985.419 59.9138H982.123V66.1969H977.9L977.848 66.1454ZM985.522 56.5147C987.891 56.5147 988.818 55.6906 988.818 53.9396C988.818 52.1886 987.84 51.416 985.522 51.416H982.071V56.5147H985.522Z" fill="white"/>
<path d="M287.885 136.553V192.844H260.074V39.988H323.215C359.369 39.988 380.381 56.4685 380.381 88.3478C380.381 120.227 359.42 136.502 323.421 136.502H287.885V136.553ZM320.846 114.253C341.807 114.253 352.313 105.704 352.313 88.3478C352.313 70.9919 341.807 62.4426 320.846 62.4426H287.885V114.253H320.846Z" fill="white"/>
<path d="M448.672 175.687C443.522 188.099 429.822 195.154 412.518 195.154C391.351 195.154 375.9 183.36 375.9 163.687C375.9 141.85 392.999 132.889 415.093 130.314L447.642 126.657V121.507C447.642 108.22 439.505 101.834 427.093 101.834C414.681 101.834 407.831 108.477 406.956 118.52H380.639C383.008 95.1901 401.188 81.4908 427.917 81.4908C457.479 81.4908 474.371 95.3962 474.371 123.67V165.644C474.371 175.687 474.783 184.081 476.534 192.837H450.217C449.135 186.863 448.723 181.043 448.723 175.738L448.672 175.687ZM447.59 150.657V144.013L423.385 146.795C411.848 148.288 403.042 150.863 403.042 162.193C403.042 170.743 409.016 176.099 419.934 176.099C434.045 176.099 447.539 167.756 447.539 150.606L447.59 150.657Z" fill="white"/>
<path d="M471.642 84.0646H499.453L529.632 166.055H530.044L558.731 84.0646H585.923L543.538 194.741C533.237 221.934 520.62 232.44 497.753 232.646C494.096 232.646 488.998 232.234 485.135 231.565V210.809C488.328 211.479 490.079 211.479 492.397 211.479C503.521 211.479 508.208 207.616 514.027 192.629L471.642 84.1161V84.0646Z" fill="white"/>
<path d="M590.403 192.792V39.9878H617.802V192.792H590.403Z" fill="white"/>
<path d="M679.656 195.371C647.57 195.371 624.652 173.741 624.652 138.462C624.652 103.184 647.57 81.5531 679.656 81.5531C711.741 81.5531 734.659 103.39 734.659 138.462C734.659 173.535 711.741 195.371 679.656 195.371ZM679.656 175.028C697.217 175.028 707.26 161.329 707.26 138.411C707.26 115.493 697.217 101.793 679.656 101.793C662.094 101.793 652.051 115.699 652.051 138.411C652.051 161.123 661.888 175.028 679.656 175.028Z" fill="white"/>
<path d="M810.469 175.687C805.319 188.099 791.619 195.154 774.315 195.154C753.148 195.154 737.697 183.36 737.697 163.687C737.697 141.85 754.796 132.889 776.89 130.314L809.439 126.657V121.507C809.439 108.22 801.302 101.834 788.89 101.834C776.478 101.834 769.628 108.477 768.753 118.52H742.436C744.805 95.1901 762.985 81.4908 789.765 81.4908C819.327 81.4908 836.22 95.3962 836.22 123.67V165.644C836.22 175.687 836.632 184.081 838.383 192.837H812.065C810.984 186.863 810.572 181.043 810.572 175.738L810.469 175.687ZM809.387 150.657V144.013L785.182 146.795C773.645 148.288 764.839 150.863 764.839 162.193C764.839 170.743 770.813 176.099 781.731 176.099C795.842 176.099 809.336 167.756 809.336 150.606L809.387 150.657Z" fill="white"/>
<path d="M925.42 175.486C920.064 186.404 906.983 195.417 890.502 195.417C862.022 195.417 842.555 172.293 842.555 138.508C842.555 104.723 862.022 81.5991 890.502 81.5991C907.395 81.5991 919.807 91.0239 924.957 101.942V40.0891H952.356V192.894H925.369V175.538L925.42 175.486ZM925.626 136.551C925.626 115.384 915.584 101.633 898.228 101.633C880.872 101.633 870.159 116.208 870.159 138.457C870.159 160.705 880.46 175.28 898.228 175.28C915.996 175.28 925.626 161.581 925.626 140.362V136.5V136.551Z" fill="white"/>
</svg>
